<svg width="30" height="30" viewBox="0 0 30 30" fill="none" xmlns="http://www.w3.org/2000/svg">
<g clip-path="url(#clip0_92_7515)">
<path d="M0 0H30V30H0V0Z" fill="#00AFCA"/>
<path d="M15.0008 16.5985C17.178 16.5985 18.943 14.8335 18.943 12.6563C18.943 10.4791 17.178 8.71411 15.0008 8.71411C12.8236 8.71411 11.0586 10.4791 11.0586 12.6563C11.0586 14.8335 12.8236 16.5985 15.0008 16.5985Z" fill="#FEC50C"/>
<path d="M15.001 8.17676C15.2354 8.17383 15.3233 8.02734 15.3233 7.85156C15.3233 7.61719 15.001 6.50391 15.001 6.50391C15.001 6.50391 14.6787 7.61719 14.6787 7.85156C14.6787 8.02734 14.7666 8.17676 15.001 8.17676ZM19.4805 12.6562C19.4834 12.8906 19.6299 12.9785 19.8057 12.9785C20.0401 12.9785 21.1563 12.6562 21.1563 12.6562C21.1563 12.6562 20.0401 12.334 19.8057 12.334C19.6299 12.334 19.4805 12.4219 19.4805 12.6562ZM15.001 17.1357C14.7666 17.1387 14.6787 17.2852 14.6787 17.4609C14.6787 17.6953 15.001 18.8115 15.001 18.8115C15.001 18.8115 15.3233 17.6953 15.3233 17.4609C15.3233 17.2852 15.2354 17.1357 15.001 17.1357ZM10.5215 12.6562C10.5186 12.4219 10.3721 12.334 10.1963 12.334C9.96192 12.334 8.8457 12.6562 8.8457 12.6562C8.8457 12.6562 9.96192 12.9785 10.1963 12.9785C10.3721 12.9785 10.5215 12.8906 10.5215 12.6562ZM16.7154 8.51777C16.9328 8.60449 17.0699 8.50312 17.1373 8.34199C17.227 8.12519 17.3565 6.9709 17.3565 6.9709C17.3565 6.9709 16.6316 7.87852 16.542 8.09531C16.4746 8.25645 16.4986 8.42812 16.7154 8.51777ZM19.1395 14.3707C19.0527 14.5881 19.1541 14.7252 19.3152 14.7926C19.532 14.8822 20.6863 15.0117 20.6863 15.0117C20.6863 15.0117 19.7787 14.2869 19.5619 14.1973C19.4008 14.1299 19.2291 14.1539 19.1395 14.3707ZM13.2865 16.7947C13.0691 16.708 12.932 16.8094 12.8647 16.9705C12.775 17.1873 12.6455 18.3416 12.6455 18.3416C12.6455 18.3416 13.3703 17.434 13.46 17.2172C13.5273 17.0561 13.5033 16.8844 13.2865 16.7947ZM10.8625 10.9418C10.9492 10.7244 10.8479 10.5873 10.6867 10.5199C10.4699 10.4303 9.31563 10.3008 9.31563 10.3008C9.31563 10.3008 10.2232 11.0256 10.44 11.1152C10.6012 11.1826 10.7729 11.1586 10.8625 10.9418ZM18.1686 9.48867C18.3361 9.65215 18.502 9.61113 18.6262 9.48867C18.792 9.32285 19.3533 8.30566 19.3533 8.30566C19.3533 8.30566 18.3361 8.86699 18.1703 9.03281C18.0479 9.15527 18.0027 9.32285 18.1686 9.48867ZM18.1686 15.8238C18.0051 15.9914 18.0461 16.1572 18.1686 16.2814C18.3344 16.4473 19.3516 17.0086 19.3516 17.0086C19.3516 17.0086 18.7902 15.9914 18.6244 15.8256C18.502 15.7031 18.3344 15.658 18.1686 15.8238ZM11.8334 15.8238C11.6658 15.6604 11.5 15.7014 11.3758 15.8238C11.21 15.9896 10.6486 17.0068 10.6486 17.0068C10.6486 17.0068 11.6658 16.4455 11.8316 16.2797C11.9541 16.1572 11.9992 15.9896 11.8334 15.8238ZM11.8334 9.48867C11.9969 9.32109 11.9559 9.15527 11.8334 9.03105C11.6676 8.86523 10.6504 8.30391 10.6504 8.30391C10.6504 8.30391 11.2117 9.32109 11.3775 9.48691C11.5 9.60938 11.6676 9.65449 11.8334 9.48867ZM19.1395 10.9418C19.232 11.1574 19.4008 11.1826 19.5631 11.1176C19.7799 11.0279 20.6875 10.3031 20.6875 10.3031C20.6875 10.3031 19.5332 10.4326 19.3164 10.5223C19.1541 10.5873 19.0498 10.7256 19.1395 10.9418ZM16.7154 16.7947C16.4998 16.8873 16.4746 17.0561 16.5397 17.2184C16.6293 17.4352 17.3541 18.3428 17.3541 18.3428C17.3541 18.3428 17.2246 17.1885 17.135 16.9717C17.0699 16.8094 16.9346 16.7051 16.7154 16.7947ZM10.8625 14.3707C10.7699 14.1551 10.6012 14.1299 10.4389 14.1949C10.2221 14.2846 9.31445 15.0094 9.31445 15.0094C9.31445 15.0094 10.4688 14.8799 10.6855 14.7902C10.8479 14.7252 10.9522 14.5898 10.8625 14.3707ZM13.2865 8.51777C13.5022 8.42519 13.5273 8.25645 13.4623 8.09414C13.3727 7.87734 12.6479 6.96973 12.6479 6.96973C12.6479 6.96973 12.7773 8.12402 12.867 8.34082C12.932 8.50313 13.0703 8.60742 13.2865 8.51777ZM15.8746 8.26172C16.1055 8.30449 16.2203 8.17793 16.2543 8.00566C16.3 7.77598 16.2016 6.61816 16.2016 6.61816C16.2016 6.61816 15.6678 7.65 15.6221 7.87969C15.5869 8.05312 15.6455 8.21719 15.8746 8.26172ZM19.3955 13.5299C19.3527 13.7607 19.4793 13.8756 19.6516 13.9096C19.8813 13.9553 21.0391 13.8568 21.0391 13.8568C21.0391 13.8568 20.0072 13.323 19.7776 13.2773C19.6041 13.2422 19.4401 13.3008 19.3955 13.5299ZM14.1274 17.0508C13.8965 17.008 13.7816 17.1346 13.7477 17.3068C13.702 17.5365 13.8004 18.6943 13.8004 18.6943C13.8004 18.6943 14.3342 17.6625 14.3799 17.4328C14.415 17.2594 14.3565 17.0953 14.1274 17.0508ZM10.6064 11.7826C10.6492 11.5518 10.5227 11.4369 10.3504 11.4029C10.1207 11.3572 8.96289 11.4557 8.96289 11.4557C8.96289 11.4557 9.99473 11.9895 10.2244 12.0352C10.3979 12.0703 10.5619 12.0117 10.6064 11.7826ZM17.4895 8.93144C17.6863 9.05918 17.841 8.98652 17.9383 8.84063C18.0684 8.64551 18.4205 7.53809 18.4205 7.53809C18.4205 7.53809 17.5328 8.2875 17.4033 8.48203C17.3049 8.62852 17.2949 8.80137 17.4895 8.93144ZM18.7258 15.1447C18.5981 15.3416 18.6707 15.4963 18.8166 15.5936C19.0117 15.7236 20.1192 16.0758 20.1192 16.0758C20.1192 16.0758 19.3697 15.1881 19.1752 15.0586C19.0287 14.9602 18.8559 14.9502 18.7258 15.1447ZM12.5125 16.3811C12.3156 16.2533 12.1609 16.326 12.0637 16.4719C11.9336 16.667 11.5814 17.7744 11.5814 17.7744C11.5814 17.7744 12.4691 17.025 12.5998 16.8305C12.6971 16.684 12.707 16.5111 12.5125 16.3811ZM11.2762 10.1678C11.4039 9.9709 11.3313 9.81621 11.1854 9.71894C10.9902 9.58887 9.88281 9.23672 9.88281 9.23672C9.88281 9.23672 10.6322 10.1244 10.8268 10.2551C10.9732 10.3523 11.1461 10.3623 11.2762 10.1678ZM18.7258 10.1678C18.8582 10.3605 19.0287 10.3523 19.1752 10.2551C19.3697 10.1244 20.1192 9.23672 20.1192 9.23672C20.1192 9.23672 19.0117 9.58828 18.8166 9.71894C18.6707 9.8168 18.5951 9.97266 18.7258 10.1678ZM17.4895 16.3811C17.2967 16.5135 17.3049 16.684 17.4022 16.8305C17.5328 17.025 18.4205 17.7744 18.4205 17.7744C18.4205 17.7744 18.069 16.667 17.9383 16.4719C17.8404 16.326 17.6846 16.2504 17.4895 16.3811ZM11.2762 15.1447C11.1438 14.952 10.9732 14.9602 10.8268 15.0574C10.6322 15.1881 9.88281 16.0758 9.88281 16.0758C9.88281 16.0758 10.9902 15.7242 11.1854 15.5936C11.3313 15.4957 11.4068 15.3398 11.2762 15.1447ZM12.5125 8.93144C12.7053 8.79902 12.6971 8.62852 12.5998 8.48203C12.4691 8.2875 11.5814 7.53809 11.5814 7.53809C11.5814 7.53809 11.933 8.64551 12.0637 8.84063C12.1615 8.98652 12.3174 9.06211 12.5125 8.93144ZM19.3955 11.7826C19.4442 12.0117 19.6053 12.0691 19.7776 12.0352C20.0072 11.9895 21.0391 11.4557 21.0391 11.4557C21.0391 11.4557 19.8813 11.3572 19.6516 11.4029C19.4781 11.4369 19.3486 11.5523 19.3955 11.7826ZM15.8746 17.0508C15.6455 17.0994 15.5881 17.2605 15.6221 17.4328C15.6678 17.6625 16.2016 18.6943 16.2016 18.6943C16.2016 18.6943 16.3 17.5365 16.2543 17.3068C16.2203 17.1334 16.1049 17.0039 15.8746 17.0508ZM10.6064 13.5299C10.5578 13.3008 10.3967 13.2434 10.2244 13.2773C9.99473 13.323 8.96289 13.8568 8.96289 13.8568C8.96289 13.8568 10.1207 13.9553 10.3504 13.9096C10.5238 13.8756 10.6533 13.7602 10.6064 13.5299ZM14.1274 8.26172C14.3565 8.21309 14.4139 8.05195 14.3799 7.87969C14.3342 7.65 13.8004 6.61816 13.8004 6.61816C13.8004 6.61816 13.702 7.77598 13.7477 8.00566C13.7816 8.1791 13.8971 8.30859 14.1274 8.26172ZM14.3072 21.1951C14.2025 21.1992 14.0987 21.2168 13.9984 21.2473C13.8607 21.2654 13.7289 21.3135 13.5924 21.3357L13.5379 21.3445L13.4459 21.3533C13.4521 21.3783 13.4554 21.4038 13.4559 21.4295C13.4564 21.4543 13.453 21.479 13.4459 21.5027C13.4369 21.5247 13.4236 21.5446 13.4066 21.5613C13.3889 21.5828 13.3669 21.6006 13.3422 21.6135C13.3183 21.6245 13.2924 21.6307 13.266 21.6316C13.2393 21.6338 13.2124 21.6306 13.1869 21.6223C13.1599 21.612 13.135 21.5967 13.1137 21.5771C13.0867 21.584 13.0593 21.5889 13.0316 21.5918C13.0061 21.5947 12.9804 21.5947 12.9549 21.5918C12.927 21.5844 12.8996 21.5752 12.8729 21.5643C12.8461 21.5537 12.8206 21.5403 12.7967 21.5244C12.6971 21.583 12.5857 21.6416 12.5248 21.7412C12.4956 21.7884 12.4788 21.8422 12.4762 21.8977C12.4733 21.9681 12.4878 22.0381 12.5184 22.1016C12.5289 22.1203 12.5377 22.0342 12.5711 22.0225C12.6285 21.9765 12.695 21.9432 12.7662 21.9246C12.8248 21.8947 12.8178 21.9246 12.7938 21.9738C12.7879 21.9978 12.7545 22.091 12.7996 22.0441C12.9977 21.9562 13.2174 21.9387 13.4313 21.9217C13.7418 21.8895 14.0535 21.883 14.3647 21.8789C14.6576 21.883 14.9506 21.8865 15.2436 21.8977C15.3836 21.9012 15.5242 21.9328 15.6619 21.9094C15.6947 21.9006 15.7469 21.8982 15.7662 21.8789C15.7016 21.8501 15.6319 21.8345 15.5611 21.8332H15.001C14.8457 21.8174 14.6834 21.8156 14.5369 21.757C14.4977 21.7412 14.4619 21.7043 14.4244 21.7441C14.3678 21.7645 14.3087 21.7769 14.2486 21.7811C14.146 21.7872 14.0433 21.7696 13.9486 21.7295C14.0172 21.6346 14.0992 21.5537 14.1742 21.4641C14.1156 21.4541 14.057 21.4412 13.9943 21.4266C14.101 21.3533 14.1994 21.2707 14.3031 21.1922L14.3072 21.1951Z" fill="#FEC50C"/>
<path d="M18.8664 22.2071C18.6537 22.3343 18.492 22.1081 18.3144 22.0407C18.1879 22.1093 18.1762 22.3395 18.0572 22.4509C17.916 22.612 17.742 22.4057 17.7555 22.2469C17.5855 22.3899 17.5 22.7157 17.2281 22.67C17.098 22.5645 17.0019 22.3419 16.9023 22.595C16.8215 22.7186 16.6064 22.895 16.4922 22.7081C16.4576 22.5428 16.375 22.3489 16.2848 22.6108C16.2232 22.7966 16.0258 22.9325 15.8342 22.8516C15.7299 22.7661 15.9186 22.4491 15.785 22.4719C15.5857 22.6038 15.4703 22.9307 15.192 22.9044C15.0842 22.7831 15.2576 22.578 15.1393 22.4432C14.9992 22.6231 14.8463 22.8856 14.6025 22.9044C14.4853 22.81 14.6072 22.5382 14.5328 22.4977C14.2844 22.6466 14.023 22.912 13.7125 22.8288C13.8344 22.3641 14.3424 22.2007 14.7672 22.1643C15.5019 22.0741 16.2754 22.2399 16.9826 21.9751C17.0969 21.9053 17.374 21.8069 17.2756 21.6458C17.1883 21.518 17.5029 21.5678 17.5334 21.419C17.5146 21.2309 17.6775 21.2567 17.8369 21.2432C18.5512 21.2122 19.256 21.3604 19.9685 21.3885C20.0219 21.7354 19.6375 21.9786 19.3275 21.8719C19.1793 21.896 18.9572 21.5315 19.0012 21.7964C18.9713 21.9358 18.9918 22.1192 18.8652 22.2124L18.8664 22.2071ZM12.7891 21.5016C12.9543 21.6528 13.0703 21.4735 13.2244 21.4073C13.743 21.2315 14.1953 20.9175 14.6412 20.6063C14.9113 20.3831 15.1451 20.093 15.5078 20.0204C16.2156 19.8065 16.968 19.8323 17.6758 19.6348C18.2172 18.8942 19.1359 18.63 19.9053 18.2046C20.0781 18.1507 20.1449 18.0083 20.1982 17.853C20.4921 17.3823 20.892 16.9868 21.366 16.6981C21.5898 16.5757 21.857 16.5048 22.1107 16.561C22.0926 16.8628 21.9191 17.1305 21.7099 17.3391C21.881 17.3356 22.0281 17.2272 22.201 17.2337C22.2596 17.5436 21.9256 17.7059 21.7474 17.8987C21.8471 17.9216 22.2267 17.9503 22.0199 18.0499C21.7557 18.2327 21.4545 18.3587 21.2113 18.5714C21.4357 18.6118 21.4615 18.6592 21.233 18.7407C21.1094 18.8245 20.8715 18.8538 20.8486 19.0173C21.018 19.1216 20.7701 19.2253 20.6728 19.2587C20.49 19.3014 20.2978 19.3811 20.541 19.52C20.449 19.6589 20.2516 19.6882 20.091 19.6747C20.1396 19.8317 20.2082 20.0081 20.006 20.0772C19.5484 20.4235 19.01 20.6749 18.4357 20.7329C19.1547 20.788 19.8947 20.6544 20.5094 20.2641C20.5902 20.168 21.0156 20.0655 20.7777 19.9846C20.6658 19.9378 20.4262 19.8862 20.4092 19.8007C20.742 19.5956 21.1615 19.6688 21.5189 19.5469C21.5283 19.4298 21.2471 19.4632 21.1422 19.4368C20.892 19.4163 20.9078 19.3524 21.148 19.3284C21.4533 19.2475 21.799 19.2317 22.0557 19.0354C21.8465 18.9382 21.5834 19.0237 21.3607 18.9446C21.7387 18.7788 22.1851 18.7624 22.5244 18.5139C22.6791 18.3417 22.3264 18.3967 22.2238 18.3997C22.014 18.436 21.9174 18.3358 22.1553 18.2485C22.5613 17.9491 23.0764 17.7546 23.3617 17.3204C23.4291 17.2231 23.5205 16.9301 23.3031 17.035C23.0195 17.1294 22.7699 17.4487 22.4471 17.3497C23.084 16.8563 23.6898 16.295 24.1246 15.6118C24.1474 15.4149 23.8381 15.3932 23.7578 15.5479C23.3476 15.9423 22.9785 16.4075 22.4547 16.6548C22.9562 16.1702 23.3711 15.5971 23.7326 15.003C23.8099 14.8272 24.0185 14.6139 23.9055 14.4171C23.7232 14.2659 23.4953 14.4042 23.4004 14.5846C23.0822 15.0001 22.8408 15.4846 22.4318 15.8227C22.7898 15.1395 23.1607 14.4124 23.1695 13.6243C23.1695 13.462 23.1361 13.2229 22.9158 13.2534C22.74 13.2844 22.7822 13.5464 22.7101 13.6782C22.5519 14.2167 22.4758 14.7997 22.1523 15.2708C22.2256 14.8337 22.3533 14.3772 22.2549 13.9354C22.2092 13.738 21.8904 13.8229 21.9314 14.0186C21.5617 15.9376 20.2662 17.6268 18.5734 18.603C17.7929 19.0387 16.9388 19.3269 16.0539 19.4532C15.8166 19.5048 15.5605 19.4749 15.3338 19.5551C14.7848 19.9764 14.4549 20.6807 13.7576 20.9028C13.4465 21.0575 13.0398 21.0891 12.8201 21.3786C12.8026 21.4163 12.7948 21.4578 12.7973 21.4993" fill="#FEC50C"/>
<path d="M14.8727 19.5399C14.7702 19.7257 14.7098 19.9395 14.5797 20.1065C14.1831 19.7456 13.6077 19.755 13.1043 19.7333C12.6889 19.711 12.2377 19.6747 11.9161 19.3765C11.578 19.0999 11.302 18.7401 10.9241 18.5157C10.5795 18.422 10.2321 18.3042 9.95493 18.0681C9.36255 17.5852 9.02329 16.8686 8.44439 16.3688C8.32946 16.2658 8.2077 16.1707 8.07993 16.0841C7.96275 16.1128 8.01607 16.3665 7.87193 16.237C7.794 16.1813 7.59829 16.1784 7.57896 16.254C7.75474 16.4884 7.93052 16.7532 7.95747 17.0515C7.83677 17.0638 7.62232 17.0263 7.56255 17.0708C7.7237 17.3127 7.92644 17.5242 8.16138 17.6954C8.04946 17.7136 7.82915 17.7036 7.78579 17.7487C8.02017 17.938 8.26626 18.1308 8.56978 18.1794C8.63189 18.2614 8.47896 18.419 8.60728 18.4893C8.68169 18.5198 8.92778 18.5708 8.75845 18.6552C8.73196 18.6708 8.71145 18.6949 8.70017 18.7235C8.68888 18.7521 8.68746 18.7837 8.69613 18.8132C8.70481 18.8427 8.72308 18.8685 8.74806 18.8865C8.77303 18.9044 8.80329 18.9136 8.83403 18.9124C8.92837 18.9604 9.13931 18.971 9.15571 19.0554C9.07251 19.1403 8.81294 19.2405 9.03384 19.3202C9.24093 19.4378 9.47272 19.5053 9.7106 19.5171C9.59341 19.6167 9.44693 19.6729 9.32564 19.7661C9.8688 20.0849 10.4711 20.2934 11.0665 20.4962C11.3024 20.5793 11.5438 20.646 11.7889 20.696C11.0752 20.655 10.3827 20.4434 9.73462 20.154C9.39771 20.0063 9.05845 19.861 8.71333 19.7362C8.8645 19.6571 9.0397 19.6384 9.19673 19.5698C8.87095 19.5048 8.5147 19.4831 8.22817 19.3038C8.27212 19.2259 8.43853 19.2218 8.53052 19.1819C8.7063 19.1403 8.81118 19.0899 8.56685 19.0753C8.32075 19.0085 8.0395 19.0384 7.82153 18.8895C7.8356 18.8005 8.06235 18.8309 8.15493 18.7934C8.27212 18.7735 8.40103 18.7565 8.49419 18.6763C8.11333 18.5186 7.61528 18.6306 7.31704 18.2942C7.24849 18.1659 7.53091 18.269 7.61001 18.2479C7.8145 18.2479 8.03364 18.313 8.22817 18.2304C7.67388 17.9872 7.07915 17.7587 6.6561 17.3087C6.60923 17.236 6.4686 17.038 6.58228 17.0157C6.91157 17.0591 7.15005 17.4183 7.5022 17.3626C7.54907 17.2993 7.29771 17.1962 7.23443 17.106C6.72114 16.6653 6.22251 16.1872 5.86275 15.6101C5.83814 15.4173 6.14107 15.388 6.22075 15.5368C6.61333 15.9153 6.96841 16.3571 7.45767 16.6149C7.63345 16.6993 7.35806 16.5153 7.32173 16.4485C6.86939 15.9212 6.43931 15.3698 6.12349 14.7493C6.06489 14.638 5.9729 14.4358 6.14224 14.3767C6.31157 14.2923 6.47915 14.4077 6.5647 14.5524C6.89751 14.9714 7.14185 15.4694 7.55552 15.8187C7.20396 15.1343 6.82661 14.4124 6.81724 13.6261C6.82544 13.4737 6.8354 13.2429 7.04224 13.2487C7.21802 13.2224 7.18872 13.445 7.24556 13.5511C7.41724 14.13 7.49165 14.7558 7.8356 15.2667C7.75943 14.8378 7.64751 14.3954 7.72193 13.9595C7.726 13.9286 7.73853 13.8995 7.75814 13.8753C7.77774 13.8511 7.80366 13.8328 7.83301 13.8224C7.86236 13.8121 7.89401 13.81 7.92446 13.8165C7.95491 13.823 7.98296 13.8378 8.00552 13.8593C8.09048 14.0679 8.10864 14.3251 8.18599 14.5478C8.6272 16.0571 9.61802 17.3843 10.9088 18.2755C11.9789 19.0078 13.2275 19.4364 14.5217 19.5159C14.6389 19.5259 14.7561 19.5294 14.8733 19.5364" fill="#FEC50C"/>
<path d="M13.2371 21.5403C13.2753 21.5403 13.3062 21.5093 13.3062 21.4711C13.3062 21.4329 13.2753 21.402 13.2371 21.402C13.1989 21.402 13.168 21.4329 13.168 21.4711C13.168 21.5093 13.1989 21.5403 13.2371 21.5403Z" fill="#FEC50C"/>
<path d="M13.2312 21.488C13.2468 21.488 13.2594 21.4754 13.2594 21.4599C13.2594 21.4444 13.2468 21.4318 13.2312 21.4318C13.2157 21.4318 13.2031 21.4444 13.2031 21.4599C13.2031 21.4754 13.2157 21.488 13.2312 21.488Z" fill="#FEC50C" stroke="#00AFCA" stroke-width="0.19" stroke-miterlimit="2"/>
</g>
<defs>
<clipPath id="clip0_92_7515">
<rect width="30" height="30" rx="15" fill="white"/>
</clipPath>
</defs>
</svg>
