<svg width="30" height="30" viewBox="0 0 30 30" fill="none" xmlns="http://www.w3.org/2000/svg">
<g clip-path="url(#clip0_92_7531)">
<path d="M0 0H30V30H0V0Z" fill="#E30A17"/>
<path d="M12.4004 22.5C16.5425 22.5 19.9004 19.1421 19.9004 15C19.9004 10.8579 16.5425 7.5 12.4004 7.5C8.25825 7.5 4.90039 10.8579 4.90039 15C4.90039 19.1421 8.25825 22.5 12.4004 22.5Z" fill="white"/>
<path d="M14.25 21C17.5637 21 20.25 18.3137 20.25 15C20.25 11.6863 17.5637 9 14.25 9C10.9363 9 8.25 11.6863 8.25 15C8.25 18.3137 10.9363 21 14.25 21Z" fill="#E30A17"/>
<path d="M18.3496 15L25.0996 17.2L20.8996 11.45V18.55L25.0996 12.8L18.3496 15Z" fill="white"/>
</g>
<defs>
<clipPath id="clip0_92_7531">
<rect width="30" height="30" rx="15" fill="white"/>
</clipPath>
</defs>
</svg>
