<svg width="21" height="20" viewBox="0 0 21 20" fill="none" xmlns="http://www.w3.org/2000/svg">
  <path d="M18.2835 5.5567C18.2835 5.70435 18.2249 5.84595 18.1205 5.95035C18.0161 6.05475 17.8745 6.1134 17.7268 6.1134H14.933C14.7853 6.1134 14.6437 6.05475 14.5393 5.95035C14.4349 5.84595 14.3763 5.70435 14.3763 5.5567V2.78351C14.3763 2.63586 14.4349 2.49426 14.5393 2.38986C14.6437 2.28546 14.7853 2.2268 14.933 2.2268H17.7165C17.8641 2.2268 18.0057 2.28546 18.1101 2.38986C18.2145 2.49426 18.2732 2.63586 18.2732 2.78351V5.56701L18.2835 5.5567ZM18.2835 17.2268C18.2835 17.3745 18.2249 17.5161 18.1205 17.6205C18.0161 17.7249 17.8745 17.7835 17.7268 17.7835H3.28351C3.13586 17.7835 2.99426 17.7249 2.88986 17.6205C2.78546 17.5161 2.7268 17.3745 2.7268 17.2268V8.34021H4.62371C4.36581 9.24957 4.32228 10.2064 4.49656 11.1354C4.67084 12.0644 5.05817 12.9404 5.62812 13.6944C6.19807 14.4485 6.93511 15.0602 7.78134 15.4813C8.62756 15.9025 9.55992 16.1216 10.5052 16.1216C11.4504 16.1216 12.3827 15.9025 13.229 15.4813C14.0752 15.0602 14.8122 14.4485 15.3822 13.6944C15.9521 12.9404 16.3395 12.0644 16.5138 11.1354C16.688 10.2064 16.6445 9.24957 16.3866 8.34021H18.2835V17.2371V17.2268ZM10.5 6.1134C11.2687 6.1134 12.0201 6.34135 12.6593 6.76841C13.2984 7.19548 13.7966 7.80248 14.0907 8.51266C14.3849 9.22285 14.4619 10.0043 14.3119 10.7582C14.162 11.5122 13.7918 12.2047 13.2482 12.7482C12.7047 13.2918 12.0122 13.662 11.2582 13.8119C10.5043 13.9619 9.72285 13.8849 9.01266 13.5907C8.30248 13.2966 7.69548 12.7984 7.26841 12.1593C6.84135 11.5201 6.6134 10.7687 6.6134 10C6.6134 8.96921 7.02288 7.98064 7.75176 7.25176C8.48064 6.52288 9.46921 6.1134 10.5 6.1134ZM17.7165 0H3.28351C2.54527 0 1.83728 0.293261 1.31527 0.81527C0.793261 1.33728 0.5 2.04527 0.5 2.78351V17.2165C0.5 17.9547 0.793261 18.6627 1.31527 19.1847C1.83728 19.7067 2.54527 20 3.28351 20H17.7165C18.4547 20 19.1627 19.7067 19.6847 19.1847C20.2067 18.6627 20.5 17.9547 20.5 17.2165V2.78351C20.5 2.04706 20.2082 1.34062 19.6884 0.818906C19.1686 0.297193 18.4632 0.00272759 17.7268 0L17.7165 0Z" fill="white"/>
</svg>
