<svg width="18" height="21" viewBox="0 0 18 21" fill="none" xmlns="http://www.w3.org/2000/svg">
  <path d="M11.3656 14.5506V16.9055C11.3656 17.404 11.2141 17.6532 10.9111 17.6532C10.7324 17.6532 10.5575 17.5714 10.3866 17.4077V14.0483C10.5575 13.8846 10.7324 13.8028 10.9111 13.8028C11.2141 13.8028 11.3656 14.052 11.3656 14.5506ZM15.305 14.5617V15.0751H14.2561V14.5617C14.2561 14.0558 14.4309 13.8028 14.7805 13.8028C15.1302 13.8028 15.305 14.0558 15.305 14.5617ZM4.04627 12.1287H5.29335V11.0796H1.65699V12.1287H2.88076V18.4791H4.04627V12.1287ZM7.40291 18.4791H8.4402V12.9657H7.40291V17.1845C7.16981 17.497 6.94836 17.6532 6.73857 17.6532C6.59871 17.6532 6.51713 17.5751 6.49382 17.4189C6.48605 17.3965 6.48216 17.2663 6.48216 17.0282V12.9657H5.44487V17.3296C5.44487 17.6942 5.47595 17.9657 5.53811 18.1443C5.63135 18.4196 5.85668 18.5573 6.2141 18.5573C6.58706 18.5573 6.98333 18.3303 7.40291 17.8764V18.4791ZM12.4029 16.8273V14.6287C12.4029 14.0855 12.3679 13.7172 12.298 13.5238C12.1659 13.1071 11.8901 12.8988 11.4705 12.8988C11.082 12.8988 10.7207 13.0997 10.3866 13.5014V11.0796H9.3493V18.4791H10.3866V17.9434C10.7362 18.3526 11.0975 18.5573 11.4705 18.5573C11.8901 18.5573 12.1659 18.3526 12.298 17.9434C12.3679 17.7425 12.4029 17.3705 12.4029 16.8273ZM16.3423 16.7157V16.5706H15.2817C15.2817 16.9501 15.2739 17.177 15.2584 17.2514C15.204 17.5193 15.0486 17.6532 14.7922 17.6532C14.4348 17.6532 14.2561 17.3965 14.2561 16.8831V15.9122H16.3423V14.7626C16.3423 14.1748 16.2374 13.7433 16.0276 13.468C15.7246 13.0885 15.3128 12.8988 14.7922 12.8988C14.2638 12.8988 13.8481 13.0885 13.5451 13.468C13.3275 13.7433 13.2188 14.1748 13.2188 14.7626V16.6934C13.2188 17.2812 13.3314 17.7128 13.5568 17.9881C13.8598 18.3675 14.2794 18.5573 14.8155 18.5573C15.3749 18.5573 15.7945 18.3601 16.0742 17.9657C16.2141 17.7648 16.2957 17.5639 16.319 17.3631C16.3345 17.2961 16.3423 17.0803 16.3423 16.7157ZM9.25606 6.526V4.18225C9.25606 3.66886 9.089 3.41216 8.75489 3.41216C8.42078 3.41216 8.25372 3.66886 8.25372 4.18225V6.526C8.25372 7.04683 8.42078 7.30725 8.75489 7.30725C9.089 7.30725 9.25606 7.04683 9.25606 6.526ZM17.636 14.9077C17.636 16.6488 17.535 17.9509 17.333 18.8139C17.2242 19.2529 16.9989 19.6212 16.657 19.9189C16.3151 20.2165 15.9188 20.3876 15.4682 20.4323C14.0385 20.5885 11.8823 20.6666 8.99965 20.6666C6.11697 20.6666 3.96079 20.5885 2.53111 20.4323C2.08045 20.3876 1.68224 20.2165 1.33647 19.9189C0.990709 19.6212 0.767322 19.2529 0.666312 18.8139C0.464291 17.9806 0.363281 16.6785 0.363281 14.9077C0.363281 13.1666 0.464291 11.8645 0.666312 11.0014C0.775092 10.5625 1.00042 10.1942 1.3423 9.89654C1.68418 9.59892 2.08434 9.42407 2.54277 9.37198C3.96468 9.22317 6.11697 9.14877 8.99965 9.14877C11.8823 9.14877 14.0385 9.22317 15.4682 9.37198C15.9188 9.42407 16.317 9.59892 16.6628 9.89654C17.0086 10.1942 17.232 10.5625 17.333 11.0014C17.535 11.8348 17.636 13.1369 17.636 14.9077ZM6.00431 0.666626H7.19312L5.78286 5.11975V8.1443H4.61736V5.11975C4.50858 4.56916 4.2716 3.78047 3.9064 2.75368C3.61891 1.98731 3.36639 1.29163 3.14883 0.666626H4.38426L5.21177 3.60189L6.00431 0.666626ZM10.3167 4.38314V6.33627C10.3167 6.93895 10.2079 7.37794 9.99032 7.65323C9.70283 8.0327 9.29102 8.22243 8.75489 8.22243C8.2343 8.22243 7.82637 8.0327 7.53111 7.65323C7.31355 7.3705 7.20477 6.93151 7.20477 6.33627V4.38314C7.20477 3.78791 7.31355 3.35264 7.53111 3.07734C7.82637 2.69788 8.2343 2.50814 8.75489 2.50814C9.29102 2.50814 9.70283 2.69788 9.99032 3.07734C10.2079 3.35264 10.3167 3.78791 10.3167 4.38314ZM14.2211 2.57511V8.1443H13.1605V7.53047C12.7487 7.99178 12.3485 8.22243 11.96 8.22243C11.6026 8.22243 11.3734 8.08478 11.2724 7.80948C11.2102 7.63091 11.1791 7.35189 11.1791 6.97243V2.57511H12.2397V6.67109C12.2397 6.91663 12.2436 7.04683 12.2514 7.06172C12.2747 7.22541 12.3563 7.30725 12.4961 7.30725C12.7059 7.30725 12.9274 7.14728 13.1605 6.82734V2.57511H14.2211Z" fill="white"/>
</svg>
