<svg width="20" height="13" viewBox="0 0 20 13" fill="none" xmlns="http://www.w3.org/2000/svg">
  <path d="M9.78318 12.6242H10.9815C11.1841 12.6003 11.375 12.5125 11.5293 12.3725C11.6391 12.2133 11.6962 12.0207 11.6919 11.8242C11.6919 11.8242 11.6919 10.1432 12.4109 9.89152C13.1298 9.63983 14.1227 11.5185 15.0899 12.2377C15.4653 12.5497 15.9394 12.7007 16.4166 12.6601H19.0871C19.0871 12.6601 20.4822 12.5703 19.8231 11.4197C19.297 10.5035 18.6254 9.68874 17.8374 9.0106C16.1256 7.37459 16.3909 7.64426 18.4023 4.82171C19.6348 3.1048 20.1142 2.05308 19.9687 1.60363C19.8231 1.15418 18.9159 1.24407 18.9159 1.24407H15.9116C15.7793 1.2282 15.6454 1.25319 15.5264 1.31598C15.4123 1.40495 15.3212 1.52234 15.2611 1.65757C14.9489 2.50645 14.577 3.32973 14.1484 4.12056C12.8388 6.52063 12.2739 6.65547 12.0514 6.50266C11.5464 6.16107 11.6662 5.11835 11.6662 4.37226C11.6662 2.06207 12 1.09126 11.0157 0.839565C10.5591 0.724875 10.0897 0.676483 9.62056 0.69574C8.77869 0.613744 7.92967 0.705352 7.12127 0.965412C6.7789 1.14519 6.51356 1.53172 6.67619 1.55869C7.00651 1.59869 7.31122 1.7651 7.53211 2.02612C7.74103 2.46991 7.84386 2.96047 7.83168 3.45537C7.83168 3.45537 8.01143 6.15208 7.42084 6.52063C7.01856 6.75435 6.46221 6.27793 5.26392 4.11157C4.86864 3.35676 4.51985 2.57611 4.21969 1.77442C4.16566 1.63791 4.08041 1.5175 3.97148 1.42385C3.83175 1.32574 3.67451 1.25846 3.50928 1.22609L0.6505 1.24407C0.6505 1.24407 0.22254 1.25306 0.0684737 1.45082C-0.0855922 1.64858 0.0684737 1.98117 0.0684737 1.98117C0.0684737 1.98117 2.30243 7.47347 4.83596 10.2511C5.46446 10.9827 6.22944 11.5709 7.08342 11.9792C7.93741 12.3874 8.86216 12.6069 9.8003 12.6242H9.78318Z" fill="white"/>
</svg>
