<svg width="20" height="18" viewBox="0 0 20 18" fill="none" xmlns="http://www.w3.org/2000/svg">
  <path d="M0.344497 8.3231L4.94792 9.99345L6.72765 15.5414C6.75663 15.6247 6.80495 15.6998 6.86865 15.7608C6.93235 15.8217 7.00961 15.8666 7.09406 15.8918C7.17851 15.9171 7.26774 15.9219 7.35442 15.9059C7.44111 15.89 7.52276 15.8536 7.59266 15.7999L10.1578 13.8114C10.2924 13.7098 10.4565 13.6548 10.6252 13.6548C10.7938 13.6548 10.9579 13.7098 11.0925 13.8114L15.7456 17.003C15.8193 17.0538 15.9042 17.0862 15.993 17.0972C16.0818 17.1083 16.1721 17.0978 16.256 17.0665C16.3399 17.0353 16.415 16.9843 16.475 16.9179C16.535 16.8514 16.5781 16.7715 16.6007 16.6848L19.9911 0.866141C20.0085 0.771838 20.0003 0.674596 19.9674 0.58452C19.9345 0.494445 19.8781 0.414825 19.804 0.353935C19.7299 0.293045 19.6409 0.253107 19.5461 0.238274C19.4514 0.22344 19.3544 0.234252 19.2653 0.269585L0.374325 7.33878C0.269022 7.36901 0.176046 7.43192 0.108811 7.51842C0.0415751 7.60492 0.00355574 7.71054 0.000237325 7.82005C-0.00308109 7.92956 0.028473 8.03729 0.0903474 8.1277C0.152222 8.21812 0.241218 8.28654 0.344497 8.3231ZM6.43931 9.09862L15.4374 3.72961C15.469 3.70456 15.5093 3.69311 15.5494 3.69777C15.5895 3.70243 15.6261 3.72283 15.6511 3.75447C15.6762 3.78611 15.6876 3.82641 15.683 3.8665C15.6783 3.90659 15.6579 3.94318 15.6263 3.96823L8.19916 10.6596C7.94304 10.895 7.77472 11.2106 7.72191 11.5544L7.47335 13.3839C7.45867 13.4331 7.42848 13.4763 7.38728 13.507C7.34607 13.5378 7.29606 13.5543 7.24467 13.5543C7.19327 13.5543 7.14326 13.5378 7.10205 13.507C7.06085 13.4763 7.03066 13.4331 7.01599 13.3839L6.02172 10.073C5.97511 9.88726 5.99072 9.69137 6.06615 9.51536C6.14158 9.33936 6.27267 9.19296 6.43931 9.09862Z" fill="white"/>
</svg>
